<?xml version="1.0" encoding="utf-8"?>
<!-- Generator: Adobe Illustrator 26.2.1, SVG Export Plug-In . SVG Version: 6.00 Build 0)  -->
<svg version="1.1" id="Capa_1" xmlns="http://www.w3.org/2000/svg" xmlns:xlink="http://www.w3.org/1999/xlink" x="0px" y="0px"
	 viewBox="0 0 520 520" style="enable-background:new 0 0 520 520;" xml:space="preserve">
<style type="text/css">
	.st0{fill:url(#SVGID_1_);}
</style>
<linearGradient id="SVGID_1_" gradientUnits="userSpaceOnUse" x1="5.1818" y1="259.7475" x2="515.1818" y2="259.7475">
	<stop  offset="0" style="stop-color:#026D9D"/>
	<stop  offset="1" style="stop-color:#58C0CE"/>
</linearGradient>
<path class="st0" d="M260.18,4.75c-140.83,0-255,114.17-255,255s114.17,255,255,255s255-114.17,255-255S401.01,4.75,260.18,4.75z
	 M411.91,122.78c8.7-11.82,25.25-14.45,37.56-5.98c12.62,8.66,14.32,25.09,5.73,36.39c-8.36,10.99-25.02,13.68-36.71,5.63
	C406.45,150.53,403.48,134.23,411.91,122.78z M379.29,106.29c0.84,0.73,1.82,1.31,3.19,2.27c7.06,5.39,14.2,11.5,20.85,18.15
	c0.76,0.76,1,1.47,0.69,2.57c-3.65,12.95,1.14,25.83,12.47,33.35c4.72,3.13,10.01,4.85,15.75,5.04c1.58,0.05,2.48,0.54,3.24,1.96
	c4.82,8.95,8.95,18.17,12.44,27.68c0.52,1.4,0.19,1.91-1.16,2.32c-5.85,1.77-11.69,3.57-17.51,5.43c-1.11,0.35-1.46,0.09-1.82-0.94
	c-1.77-5.08-3.88-10.03-6.09-14.94c-0.64-1.42-1.17-1.26-2.25-0.5c-4.17,2.94-8.34,5.87-12.51,8.8
	c-12.93-19.1-28.8-35.53-46.88-48.44c6.46-4.53,12.91-9.07,19.39-13.59c1.35-0.95,1.17-1.41,0.03-2.4c-4.04-3.49-8.26-6.75-12.49-10
	c-1.08-0.83-1-1.37-0.26-2.33c3.57-4.67,7.09-9.36,10.58-14.09C377.68,105.6,378.28,105.41,379.29,106.29z M305.01,46.8
	c8.7-11.46,25.36-13.81,37.36-5.26c11.67,8.32,14.23,24.39,5.68,35.64c-8.95,11.78-25.27,14.16-37.51,5.48
	C298.89,74.41,296.39,58.15,305.01,46.8z M172.39,46.61c8.52-11.3,25.19-13.62,37.11-5.58c12.03,8.12,14.27,25.5,5.76,36.11
	c-8.63,11.43-25.12,13.91-36.98,5.56C166.29,74.26,163.66,58.19,172.39,46.61z M117.66,125.73c4.99-4.93,10.36-9.44,15.65-14.04
	c2.47-2.15,5.33-3.79,7.81-5.9c1-0.85,1.56-0.51,2.23,0.39c3.61,4.88,7.23,9.75,10.93,14.57c0.77,1.01,0.37,1.44-0.43,2.01
	c-4.13,2.94-8.08,6.1-11.9,9.42c-2.04,1.77-2.04,1.92,0.18,3.49c7.28,5.12,14.57,10.23,21.84,15.35
	c-17.81,13.08-33.54,29.56-46.41,48.66c-5.2-3.66-10.41-7.32-15.61-10.99c-1.95-1.37-2.21-1.29-3.21,0.95
	c-2,4.5-3.96,9.01-5.48,13.68c-0.48,1.46-1.14,1.51-2.46,1.08c-5.69-1.86-11.4-3.66-17.12-5.4c-1.29-0.39-1.48-0.86-1.06-2.07
	c3.43-9.93,7.88-19.41,12.94-28.64c0.5-0.92,1.18-1.04,2.1-1.09c10.76-0.6,19.33-5.03,25.2-13.85c4.83-7.26,6.01-15.2,3.81-23.56
	C116.24,128.14,116.33,127.05,117.66,125.73z M65.26,121.68c8.63-11.43,25.31-13.8,37.33-5.15c12.15,8.73,14,25.23,5.31,36.32
	c-8.67,11.06-25.11,13.49-36.9,5.14C58.79,149.34,56.29,133.56,65.26,121.68z M30.16,279.99C18.3,271.52,15.4,255.58,24,244.15
	c9.19-12.22,25.37-13.93,37-6.13c12.23,8.2,15.18,24.89,6.26,36.18C59.24,286.1,41.15,287.85,30.16,279.99z M70.89,315.48
	c-3.4-9.94-5.37-20.19-7.03-30.5c-0.09-0.55-0.06-1.02,0.19-1.27c1.72-1.57,3.37-2.88,4.8-4.39c5.43-5.77,8.05-12.61,7.99-20.41
	c-0.06-8.51-3.31-15.66-9.71-21.49c-0.87-0.79-1.74-1.61-2.71-2.28c-0.83-0.58-0.77-1.3-0.65-2.07c1.51-9.89,3.65-19.64,6.55-29.23
	c0.74-2.46,0.86-2.54,3.4-1.75c5.51,1.72,10.99,3.55,16.53,5.19c1.91,0.56,1.06,1.74,0.77,2.56c-1.66,4.71-2.54,9.6-3.82,14.4
	c-0.42,1.59-0.2,2.1,1.72,2.09c4.45-0.02,8.9,0.02,13.36,0.04c-3.18,6.61-6.05,13.44-8.6,20.47l46.45,5.11l84.6,9.31
	c1.09,0.12,1.05,1.67-0.04,1.74l-138.43,8.84c-3.2,13.59-5.23,27.73-5.92,42.29c-2.48,0.78-4.97,1.56-7.44,2.36
	C71.65,316.9,71.24,316.52,70.89,315.48z M131.72,414.36h-54.6v-74.51h17.24v60.46h37.36V414.36z M154.99,414.36h-15.34v-36.61
	h15.34V414.36z M154.2,371.94c-1.77,1.67-4.07,2.51-6.88,2.51c-2.82,0-5.11-0.82-6.88-2.46c-1.77-1.64-2.65-3.67-2.65-6.09
	s0.88-4.46,2.65-6.1c1.77-1.64,4.06-2.46,6.88-2.46c2.82,0,5.11,0.79,6.88,2.36c1.77,1.57,2.65,3.54,2.65,5.9
	C156.85,368.16,155.97,370.27,154.2,371.94z M223.52,404.19c-2.38,3.51-5.94,6.3-10.7,8.36c-4.76,2.06-10.54,3.09-17.35,3.09
	c-5.89,0-11.59-0.8-17.08-2.4c-5.5-1.6-9.91-3.67-13.25-6.23l5.86-12.98c3.19,2.34,6.99,4.22,11.39,5.64
	c4.4,1.42,8.8,2.13,13.2,2.13c4.9,0,8.51-0.73,10.86-2.18c2.34-1.45,3.51-3.39,3.51-5.8c0-1.77-0.69-3.25-2.08-4.42
	c-1.38-1.17-3.16-2.11-5.32-2.82c-2.17-0.71-5.09-1.49-8.78-2.34c-5.68-1.35-10.32-2.7-13.94-4.05c-3.62-1.35-6.72-3.51-9.31-6.49
	c-2.59-2.98-3.89-6.95-3.89-11.92c0-4.33,1.17-8.25,3.51-11.76c2.34-3.51,5.87-6.3,10.59-8.36c4.72-2.06,10.48-3.09,17.3-3.09
	c4.75,0,9.4,0.57,13.94,1.7c4.54,1.14,8.51,2.77,11.92,4.9l-5.32,13.09c-6.88-3.9-13.77-5.85-20.65-5.85
	c-4.83,0-8.39,0.78-10.7,2.34c-2.31,1.56-3.46,3.62-3.46,6.17c0,2.55,1.33,4.45,3.99,5.69c2.66,1.24,6.72,2.47,12.19,3.67
	c5.68,1.35,10.32,2.7,13.94,4.05c3.62,1.35,6.72,3.48,9.32,6.39c2.59,2.91,3.88,6.85,3.88,11.81
	C227.09,396.8,225.9,400.68,223.52,404.19z M256.14,414.36H238.9v-74.51h17.24V414.36z M255.85,273.17
	c-7.74,0-14.01-6.12-14.01-13.68c0-7.56,6.27-13.68,14.01-13.68c7.74,0,14.01,6.12,14.01,13.68
	C269.86,267.04,263.59,273.17,255.85,273.17z M266.84,206.17l-4.54,15.73l-4.96,17.17c-0.2,0.69-1.2,0.67-1.37-0.02l-4.39-17.32
	l-3.95-15.57h-6c-3.29,0-5.98-2.38-5.98-5.29v-5.05h-7.69c-0.35,0-0.64-0.28-0.64-0.62v-73.47c-15.2,3.46-29.76,9.07-43.4,16.55
	c-2.88-8.58-5.76-17.16-8.65-25.74c-0.94-2.8-0.94-2.78-3.62-1.33c-4.42,2.4-8.67,5.05-12.81,7.86c-0.95,0.65-1.42,0.7-2.17-0.32
	c-3.51-4.79-7.1-9.52-10.71-14.24c-0.72-0.95-0.87-1.47,0.3-2.26c8.39-5.62,17.18-10.57,26.28-15.04c1.91-0.94,3.26-0.76,5.04,0.32
	c10.88,6.61,24.65,6.03,34.96-1.37c2.53-1.81,4.68-4.01,6.6-6.42c1.72-2.38,3.09-4.95,4.08-7.68c0.31-0.86,0.76-1.2,1.66-1.36
	c10.66-1.86,21.4-2.81,32.23-3.04c1.17-0.02,1.44,0.35,1.43,1.41c-0.05,6-0.07,12,0.01,18c0.02,1.19-0.4,1.34-1.46,1.34
	c-5.34,0.02-10.66,0.43-15.97,0.91c-1.8,0.16-2.31,0.48-1.66,2.37c2.81,8.2,5.58,16.42,8.35,24.64h24.82
	c2.78-8.26,5.55-16.53,8.34-24.79c0.49-1.44,0.31-1.97-1.4-2.15c-5.44-0.55-10.89-0.91-16.35-0.98c-1.18-0.01-1.46-0.34-1.45-1.41
	c0.04-6,0.06-11.99-0.02-17.99c-0.01-1.19,0.43-1.39,1.49-1.37c10.74,0.23,21.41,1.22,31.99,3.05c1.03,0.18,1.53,0.6,1.93,1.59
	c7.44,18.78,29.34,25.73,46.78,14.83c0.99-0.62,1.77-0.67,2.75-0.19c9.49,4.63,18.65,9.79,27.36,15.69
	c1.07,0.73,1.19,1.24,0.38,2.25c-1.84,2.29-3.55,4.68-5.31,7.03c0,0,0,0-0.01,0c-1.76,2.35-3.58,4.66-5.26,7.06
	c-0.73,1.04-1.27,1.14-2.34,0.41c-4.42-3.02-9.02-5.78-13.69-8.41c-1.42-0.8-1.87-0.54-2.32,0.89c-2.11,6.63-4.29,13.26-6.54,19.84
	c-0.45,1.3-0.88,2.61-1.33,3.92c-15.92-8.11-33.12-13.68-51.19-16.26v75.86c0,0.34-0.28,0.62-0.64,0.62h-8.09v5.05
	c0,2.91-2.69,5.29-5.98,5.29H266.84z M340.65,381.58c0,10.93-2.97,19.34-8.89,25.22c-5.93,5.89-14.21,8.84-24.85,8.84
	c-10.64,0-18.93-2.94-24.85-8.84c-5.93-5.89-8.89-14.3-8.89-25.22v-41.72h17.24v41.08c0,13.34,5.53,20.01,16.6,20.01
	c5.39,0,9.51-1.61,12.35-4.84c2.84-3.23,4.26-8.28,4.26-15.17v-41.08h17.03V381.58z M425.48,414.36l-0.11-44.7l-21.93,36.83h-7.77
	l-21.82-35.87v43.75h-16.18v-74.51h14.26l27.89,46.3l27.46-46.3h14.16l0.21,74.51H425.48z M456.82,285.99
	c-1.55,10.08-3.71,20.03-6.77,29.79c-0.42,1.33-0.85,1.72-2.33,1.23c-1.39-0.47-2.79-0.91-4.18-1.36
	c-0.37-14.94-2.17-29.49-5.23-43.49l-158.57-10.13c-1-0.06-1.04-1.5-0.04-1.61l96.72-10.64l53.71-5.91c-2.11-5.8-4.43-11.48-6.99-17
	c2.86,0.01,5.72,0.01,8.58,0.02c1.76,0.01,2.12-0.34,1.73-2c-1.2-5.03-2.37-10.07-4.05-14.98c-0.44-1.27-0.16-1.73,1.17-2.13
	c5.73-1.71,11.43-3.5,17.11-5.36c1.32-0.43,1.79-0.21,2.2,1.09c2.31,7.42,4.13,14.96,5.58,22.57c0.45,2.38,0.94,4.75,1.24,7.16
	c0.16,1.29-0.09,2.1-1.18,2.95c-12.69,9.88-15.5,26.68-6.7,39.97c1.85,2.79,4.13,5.23,6.91,7.2
	C456.68,284.06,457,284.82,456.82,285.99z M459.28,280.49c-11.87-8.36-14.54-24.43-6.01-35.79c9.1-12.12,25.84-13.84,37.37-5.74
	c11.89,8.35,14.46,24.5,5.8,35.97C487.94,286.26,471.48,289.09,459.28,280.49z"/>
</svg>
